<?xml version="1.0" encoding="UTF-8"?>
<!DOCTYPE svg PUBLIC "-//W3C//DTD SVG 1.1//EN" "http://www.w3.org/Graphics/SVG/1.1/DTD/svg11.dtd">
<!-- Creator: CorelDRAW -->
<svg xmlns="http://www.w3.org/2000/svg" xml:space="preserve" width="50mm" height="10mm" style="shape-rendering:geometricPrecision; text-rendering:geometricPrecision; image-rendering:optimizeQuality; fill-rule:evenodd; clip-rule:evenodd"
viewBox="0 0 50 10"
 xmlns:xlink="http://www.w3.org/1999/xlink">
 <defs>
  <style type="text/css">
   <![CDATA[
    .fil0 {fill:white;fill-rule:nonzero}
   ]]>
  </style>
 </defs>
 <g id="Capa_x0020_1">
  <metadata id="CorelCorpID_0Corel-Layer"/>
  <path class="fil0" d="M6.8473 6.8098l-0.4314 0 0 -0.2715c-0.1067,0.1261 -0.2117,0.2028 -0.3151,0.2303 -0.1034,0.0275 -0.2472,0.0412 -0.4314,0.0412l-0.9696 0 -0.2181 0c-0.2327,0 -0.4145,-0.0186 -0.5454,-0.0557 -0.1308,-0.0372 -0.2221,-0.0978 -0.2738,-0.1818 -0.0421,-0.0776 -0.0744,-0.1697 -0.097,-0.2763 -0.0129,-0.0938 -0.0202,-0.1608 -0.0218,-0.2012 -0.0016,-0.0404 -0.0024,-0.0719 -0.0024,-0.0945 0,-0.0518 0,-0.1051 0,-0.16 0.0097,-0.0453 0.0169,-0.0857 0.0218,-0.1212 0.0048,-0.0356 0.0153,-0.0719 0.0315,-0.1091 0.0162,-0.0371 0.0372,-0.0751 0.063,-0.1139 0.0517,-0.0776 0.1487,-0.139 0.2909,-0.1842 0.1422,-0.0388 0.3231,-0.0582 0.5429,-0.0582l0.2278 0 0.9211 0c0.181,0 0.3304,0.017 0.4484,0.0509 0.1179,0.034 0.227,0.1091 0.3272,0.2254l0 -0.1357 0 -0.063c0,-0.1422 -0.0049,-0.2569 -0.0145,-0.3442 0,-0.0969 -0.0404,-0.1858 -0.1212,-0.2666 -0.0679,-0.0776 -0.1576,-0.1261 -0.2691,-0.1454 -0.1115,-0.0194 -0.2674,-0.0291 -0.4678,-0.0291l-0.1502 0 -0.5139 0 -0.1939 0c-0.1584,0 -0.2755,0.0105 -0.3514,0.0315 -0.076,0.021 -0.1325,0.0598 -0.1697,0.1163 -0.0372,0.0566 -0.0574,0.1075 -0.0606,0.1527 0,0.0582 0,0.1034 0,0.1358l-0.446 0c0,-0.1325 0.0097,-0.244 0.0291,-0.3345 0.0194,-0.0905 0.0719,-0.1786 0.1575,-0.2642 0.0857,-0.0857 0.1915,-0.143 0.3176,-0.1721 0.126,-0.0291 0.3134,-0.0436 0.5623,-0.0436l0.669 0c0.3361,0 0.5922,0.0129 0.7683,0.0387 0.1761,0.0259 0.3199,0.0978 0.4314,0.2158 0.1115,0.1179 0.1818,0.2415 0.2109,0.3708 0.0291,0.1293 0.0436,0.3038 0.0436,0.5235l0 0.2085 0 1.2846zm-2.8164 -1.0358c-0.0356,0.0558 -0.0533,0.1406 -0.0533,0.2553 0,0.1107 0.0202,0.2028 0.0605,0.2747 0.0404,0.0711 0.1164,0.122 0.2263,0.1519 0.0557,0.0097 0.1212,0.0178 0.1971,0.0243 0.0768,0.0064 0.1664,0.0097 0.2707,0.0097l0.185 0 0.53 0c0.1591,0 0.269,-0.0025 0.3288,-0.0073 0.0598,-0.0049 0.1584,-0.017 0.2941,-0.0364 0.1365,-0.0194 0.2278,-0.0662 0.2755,-0.1406 0.0469,-0.0743 0.0703,-0.1567 0.0703,-0.2472 0,-0.1034 -0.0202,-0.1931 -0.0606,-0.269 -0.0404,-0.076 -0.1115,-0.1285 -0.2117,-0.1576 -0.101,-0.0291 -0.2617,-0.0436 -0.4823,-0.0436l-0.2238 0 -0.589 0c-0.0808,0 -0.1551,0 -0.2238,0 -0.0679,0 -0.126,0 -0.1753,0 -0.0873,0 -0.1648,0.0129 -0.2335,0.0396 -0.0743,0.0194 -0.1357,0.0679 -0.185,0.1462z"/>
  <path id="1" class="fil0" d="M10.357 5.4137l-0.3926 0 0.0048 -0.16c0,-0.1422 -0.0177,-0.265 -0.0533,-0.3684 -0.0323,-0.1131 -0.0889,-0.1899 -0.1697,-0.2303 -0.0808,-0.0404 -0.1809,-0.0702 -0.3005,-0.0896 -0.1293,-0.0162 -0.2602,-0.0243 -0.3927,-0.0243 -0.1583,0 -0.3078,0.0097 -0.4484,0.0291 -0.1405,0.0194 -0.2537,0.0558 -0.3393,0.1091 -0.0856,0.0533 -0.147,0.147 -0.1842,0.2811 -0.0372,0.1342 -0.0558,0.2901 -0.0558,0.4678l0 0.16 0 1.2216 -0.4314 0 0 -2.6419 0.4169 0 0 0.4169c0.1163,-0.1568 0.2731,-0.2626 0.4702,-0.3184 0.1972,-0.0557 0.4056,-0.084 0.6254,-0.084l0.1551 0 0.1357 0c0.1681,0 0.3288,0.025 0.4824,0.0751 0.1535,0.0501 0.2641,0.1342 0.332,0.2521 0.0679,0.118 0.1099,0.2529 0.126,0.4048l0.0194 0.4993z"/>
  <path id="12" class="fil0" d="M11.2004 3.5377l0.4315 0 0 0.6302 1.7887 0 0 0.3781 -1.7887 0 0 0.9598 0 0.1939c0,0.2036 0.0121,0.3523 0.0363,0.446 0.0243,0.0937 0.0687,0.1608 0.1333,0.2012 0.0647,0.0404 0.1455,0.0654 0.2424,0.0751l0.3296 0.0145 0.3394 -0.0145c0.1066,-0.0097 0.1882,-0.0315 0.2448,-0.0655 0.0565,-0.0339 0.1026,-0.1171 0.1381,-0.2496 0.0291,-0.126 0.0437,-0.2715 0.0437,-0.4363l0 -0.1018 0.3441 0 0 0.1503 0 0.1551c0,0.2392 -0.029,0.4161 -0.0872,0.5308 -0.0582,0.1148 -0.1317,0.2028 -0.2222,0.2642 -0.0776,0.0453 -0.1858,0.0824 -0.324,0.1115 -0.126,0.0194 -0.2714,0.0291 -0.4355,0.0291 -0.1777,0 -0.3377,-0.0105 -0.4815,-0.0315 -0.1438,-0.021 -0.2569,-0.0558 -0.3409,-0.1042 -0.1648,-0.0873 -0.2707,-0.2044 -0.3192,-0.3515 -0.0484,-0.147 -0.0727,-0.3337 -0.0727,-0.5599l0 -0.1551 0 -1.0616 -0.5575 0 0 -0.3781 0.5575 0 0 -0.6302z"/>
  <path id="123" class="fil0" d="M17.3326 5.6367l-2.9376 0c0,0.1389 0.0097,0.2537 0.0291,0.3442 0.0194,0.0904 0.0678,0.1793 0.1454,0.2666 0.0743,0.0743 0.1616,0.126 0.2618,0.1551 0.0517,0.0097 0.1018,0.0178 0.1502,0.0242 0.0485,0.0065 0.1018,0.0097 0.16,0.0097l0.0727 0 0.8338 0 0.1842 0c0.2133,0 0.3693,-0.025 0.4678,-0.0751 0.0986,-0.0501 0.1689,-0.1786 0.2109,-0.3854l0.4266 0c0,0.3426 -0.0937,0.5672 -0.2812,0.6738 -0.1874,0.1067 -0.4799,0.16 -0.8774,0.16l-0.7271 0 -0.1794 0c-0.2682,0 -0.5009,-0.0291 -0.6981,-0.0873 -0.1971,-0.0581 -0.3369,-0.1591 -0.4193,-0.3029 -0.0824,-0.1438 -0.1389,-0.2982 -0.1696,-0.463 -0.0307,-0.1648 -0.0461,-0.3345 -0.0461,-0.509 0,-0.1745 0.0121,-0.3296 0.0364,-0.4653 0.0242,-0.1358 0.08,-0.2796 0.1672,-0.4315 0.0873,-0.1519 0.2311,-0.2537 0.4314,-0.3054 0.1067,-0.0258 0.219,-0.0452 0.337,-0.0582 0.1179,-0.0129 0.2593,-0.0193 0.4241,-0.0193l0.5817 0 0.097 0c0.223,0 0.4419,0.029 0.6568,0.0872 0.2149,0.0582 0.3693,0.16 0.463,0.3054 0.0937,0.1454 0.1503,0.3022 0.1696,0.4702 0.0194,0.1681 0.0291,0.3701 0.0291,0.606zm-0.698 -0.9647c-0.0582,-0.0355 -0.1907,-0.0679 -0.3975,-0.0969 -0.1002,-0.0097 -0.2036,-0.0178 -0.3103,-0.0243 -0.1066,-0.0064 -0.2197,-0.0097 -0.3393,-0.0097 -0.2198,0 -0.4104,0.0097 -0.572,0.0291 -0.1551,0.0129 -0.2699,0.0388 -0.3442,0.0776 -0.1131,0.0678 -0.1891,0.1535 -0.2278,0.2569 -0.0324,0.1066 -0.0485,0.2278 -0.0485,0.3636l2.4771 0 0 -0.0824 0.0049 -0.0873c0,-0.097 -0.0154,-0.1769 -0.0461,-0.24 -0.0307,-0.063 -0.0961,-0.1252 -0.1963,-0.1866z"/>
  <path id="1234" class="fil0" d="M23.426 4.1339l-0.4751 0 0 -0.088c0,-0.1366 -0.0056,-0.2432 -0.0169,-0.3192 -0.0113,-0.0767 -0.0437,-0.1389 -0.097,-0.1858 -0.0533,-0.0469 -0.1309,-0.08 -0.2327,-0.0978 -0.1018,-0.0177 -0.2189,-0.0266 -0.3514,-0.0266l-1.1295 0 -0.1503 0 -0.1309 0c-0.126,0 -0.2246,0.0097 -0.2957,0.0291 -0.0711,0.0194 -0.1244,0.0541 -0.1599,0.1042 -0.0356,0.0501 -0.0631,0.1026 -0.0824,0.1575l-0.0194 0.1794c0,0.0226 0.0016,0.0485 0.0048,0.0776 0.0032,0.029 0.0105,0.0711 0.0218,0.126 0.0113,0.0549 0.1075,0.1341 0.2885,0.2375l0.3336 0.1754 2.4343 1.2741 0 -0.8387 0.4751 0 0 1.0883 0.7223 0.3854 -0.1713 0.3813 -0.7029 -0.3635c-0.1583,0.1826 -0.3377,0.2973 -0.5381,0.3442 -0.2003,0.046 -0.4363,0.0694 -0.7069,0.0694l-1.6676 0 -0.1551 0c-0.1357,0 -0.2618,-0.0064 -0.3773,-0.0194 -0.1164,-0.0129 -0.2246,-0.0339 -0.3248,-0.063 -0.1971,-0.0549 -0.3361,-0.1486 -0.4169,-0.2811 -0.0808,-0.1325 -0.139,-0.2731 -0.1745,-0.4218 -0.0129,-0.0743 -0.0226,-0.1462 -0.0291,-0.2157 -0.0065,-0.0695 -0.0097,-0.1543 -0.0097,-0.2545 0,-0.265 0.0339,-0.4726 0.1018,-0.6229 0.0679,-0.1503 0.1737,-0.2537 0.3175,-0.3103 0.1438,-0.0565 0.303,-0.0848 0.4775,-0.0848 -0.1293,-0.0679 -0.223,-0.1406 -0.2812,-0.2181 -0.0452,-0.0744 -0.0759,-0.1616 -0.0921,-0.2618l-0.0193 -0.1939 0 -0.0873c0,-0.0387 0.0008,-0.0816 0.0024,-0.1284 0.0016,-0.0469 0.0145,-0.1115 0.0388,-0.1939 0.0242,-0.0824 0.0686,-0.1592 0.1333,-0.2303 0.0646,-0.0711 0.1519,-0.1276 0.2617,-0.1697 0.1099,-0.042 0.2715,-0.063 0.4848,-0.063l0.1551 0 1.4446 0c0.1228,0 0.2246,0.0033 0.3054,0.0097 0.0808,0.0065 0.1858,0.0234 0.3151,0.0509 0.1293,0.0275 0.2375,0.1026 0.3248,0.2254 0.0485,0.0647 0.0848,0.1245 0.1091,0.1794 0.0242,0.0549 0.0363,0.1147 0.0363,0.1794l0.0194 0.4653zm-2.9086 0.6545l-0.0533 -0.0049c-0.042,0 -0.084,0.0049 -0.126,0.0145 -0.042,0.0097 -0.0727,0.0178 -0.0921,0.0243 -0.0194,0.0064 -0.0533,0.0226 -0.1018,0.0485 -0.0679,0.029 -0.1317,0.0783 -0.1915,0.1478 -0.0598,0.0695 -0.101,0.143 -0.1236,0.2206 -0.0226,0.0775 -0.0339,0.2036 -0.0339,0.3781 0,0.0646 0.0016,0.1252 0.0048,0.1818 0.0032,0.0565 0.0105,0.122 0.0218,0.1963 0.0113,0.0743 0.0412,0.1422 0.0897,0.2036 0.0485,0.0614 0.1398,0.1123 0.2739,0.1527 0.1341,0.0404 0.3369,0.0606 0.6076,0.0606l0.1502 0 1.6038 0c0.1713,0 0.3135,-0.0194 0.4266,-0.0574 0.1131,-0.0379 0.1906,-0.0872 0.2326,-0.1478l-2.6888 -1.4187z"/>
  <path id="12345" class="fil0" d="M29.9848 6.8098l-0.4217 0 0 -0.3975c-0.1132,0.168 -0.2384,0.2779 -0.3749,0.3296 -0.1358,0.0453 -0.3111,0.0679 -0.5252,0.0679l-0.7247 0 -0.1551 0c-0.2367,0 -0.4355,-0.0291 -0.5963,-0.0873 -0.1599,-0.0581 -0.2844,-0.1567 -0.3716,-0.2957 -0.0388,-0.0678 -0.0711,-0.1365 -0.0954,-0.206 -0.0242,-0.0695 -0.0428,-0.1478 -0.0557,-0.2351 -0.0129,-0.0872 -0.0226,-0.1729 -0.0291,-0.2569 -0.0065,-0.084 -0.0097,-0.1729 -0.0097,-0.2666 0,-0.1713 0.0097,-0.3313 0.0291,-0.4799 0.0194,-0.1487 0.0679,-0.2925 0.1462,-0.4315 0.0776,-0.1389 0.219,-0.2375 0.4226,-0.2957 0.2044,-0.0582 0.4363,-0.0872 0.6956,-0.0872l0.1608 0 0.7926 0c0.1656,0 0.2989,0.025 0.4015,0.0751 0.1018,0.0501 0.1988,0.1414 0.2893,0.2739l0 -1.4979 0.4217 0 0 3.7908zm-0.8047 -2.196c-0.0549,-0.0194 -0.147,-0.0371 -0.2763,-0.0533l-0.3442 -0.0145 -0.0873 0 -0.475 0 -0.1406 0c-0.181,0 -0.3264,0.0177 -0.4363,0.0533 -0.1163,0.0323 -0.1987,0.0953 -0.2472,0.1891 -0.0453,0.0775 -0.0776,0.1793 -0.097,0.3053l-0.0194 0.4218c0,0.0679 0,0.1252 0,0.1721 0,0.0468 0.0065,0.1155 0.0194,0.206 0.0097,0.1131 0.0421,0.2101 0.097,0.2909 0.0485,0.0872 0.139,0.151 0.2715,0.1914 0.1325,0.0404 0.2763,0.0606 0.4314,0.0606l0.1212 0 0.5429 0 0.1018 0c0.1745,0 0.328,-0.0177 0.4605,-0.0533 0.1325,-0.0355 0.2327,-0.0986 0.3006,-0.189 0.0582,-0.0873 0.1002,-0.2004 0.126,-0.3394 0.0097,-0.0678 0.0178,-0.1389 0.0243,-0.2133 0.0064,-0.0743 0.0097,-0.1535 0.0097,-0.2375 0,-0.1971 -0.013,-0.3329 -0.0388,-0.4072 -0.0194,-0.084 -0.059,-0.1592 -0.1188,-0.2254 -0.0598,-0.0663 -0.1349,-0.1188 -0.2254,-0.1576z"/>
  <path id="123456" class="fil0" d="M30.6053 3.019l0.4314 0 0 0.5284 -0.4314 0 0 -0.5284zm0 1.1489l0.4314 0 0 2.6419 -0.4314 0 0 -2.6419z"/>
  <path id="1234567" class="fil0" d="M32.6073 5.6803c-0.2553,0 -0.463,-0.0186 -0.6229,-0.0557 -0.16,-0.0372 -0.2836,-0.1237 -0.3709,-0.2594 -0.0808,-0.1422 -0.1212,-0.2876 -0.1212,-0.4363 0,-0.1616 0.0372,-0.3086 0.1115,-0.4411 0.0744,-0.1325 0.2028,-0.219 0.3854,-0.2593 0.1826,-0.0404 0.4,-0.0606 0.652,-0.0606l1.0229 0c0.0775,0 0.1559,0.0048 0.2351,0.0145 0.0792,0.0097 0.1624,0.0259 0.2496,0.0485 0.1616,0.0388 0.278,0.0969 0.3491,0.1745 0.0711,0.0776 0.1155,0.1575 0.1333,0.2399 0.0177,0.0825 0.0266,0.1915 0.0266,0.3273l-0.3926 0c0,-0.181 -0.0428,-0.2974 -0.1293,-0.3491 -0.0856,-0.0517 -0.2198,-0.0775 -0.4015,-0.0775l-0.1705 0 -0.8079 0 -0.219 0c-0.1527,0 -0.2731,0.0048 -0.3628,0.0145 -0.0888,0.0097 -0.1494,0.0396 -0.1801,0.0897 -0.0307,0.0501 -0.0509,0.0961 -0.0606,0.1382l0 0.1211c0,0.0905 0.0186,0.1657 0.0557,0.2255 0.0372,0.0597 0.1156,0.1042 0.2351,0.1333 0.0582,0.0097 0.1261,0.0177 0.2036,0.0242 0.0776,0.0065 0.1665,0.0097 0.2667,0.0097l0.1987 0 0.7223 0c0.2747,0 0.4969,0.0194 0.6665,0.0582 0.1697,0.0387 0.303,0.1422 0.4,0.3102 0.0581,0.1164 0.0872,0.2489 0.0872,0.3975 0,0.0808 -0.0097,0.1551 -0.0291,0.223 -0.0194,0.0679 -0.0517,0.1374 -0.0969,0.2085 -0.0776,0.126 -0.2052,0.2092 -0.383,0.2496 -0.1777,0.0404 -0.3813,0.0606 -0.6108,0.0606l-1.1489 0c-0.252,0 -0.4451,-0.0178 -0.5792,-0.0533 -0.1342,-0.0356 -0.2376,-0.1067 -0.3103,-0.2133 -0.0727,-0.1067 -0.1171,-0.1988 -0.1333,-0.2763 -0.0097,-0.0776 -0.0145,-0.202 -0.0145,-0.3733l0.3926 0c0,0.1196 0.0057,0.2085 0.017,0.2666 0.0113,0.0582 0.0412,0.1099 0.0897,0.1551 0.0484,0.0453 0.1123,0.0768 0.1914,0.0946 0.0792,0.0177 0.2028,0.0266 0.3709,0.0266l0.8435 0 0.2375 0c0.1939,0 0.3401,-0.0097 0.4387,-0.0291 0.0986,-0.0193 0.1713,-0.0638 0.2181,-0.1333 0.0469,-0.0694 0.0703,-0.1527 0.0703,-0.2496 0,-0.0873 -0.0177,-0.1551 -0.0533,-0.2036 -0.0258,-0.0485 -0.084,-0.0857 -0.1745,-0.1115 -0.084,-0.0194 -0.2084,-0.0291 -0.3733,-0.0291l-0.2375 0 -0.8871 0z"/>
  <path id="12345678" class="fil0" d="M38.6717 5.6367l-2.9376 0c0,0.1389 0.0097,0.2537 0.0291,0.3442 0.0194,0.0904 0.0678,0.1793 0.1454,0.2666 0.0743,0.0743 0.1616,0.126 0.2618,0.1551 0.0517,0.0097 0.1018,0.0178 0.1502,0.0242 0.0485,0.0065 0.1018,0.0097 0.16,0.0097l0.0727 0 0.8338 0 0.1842 0c0.2133,0 0.3693,-0.025 0.4678,-0.0751 0.0986,-0.0501 0.1689,-0.1786 0.2109,-0.3854l0.4266 0c0,0.3426 -0.0937,0.5672 -0.2812,0.6738 -0.1874,0.1067 -0.4799,0.16 -0.8774,0.16l-0.7271 0 -0.1794 0c-0.2682,0 -0.5009,-0.0291 -0.6981,-0.0873 -0.1971,-0.0581 -0.3369,-0.1591 -0.4193,-0.3029 -0.0824,-0.1438 -0.1389,-0.2982 -0.1696,-0.463 -0.0307,-0.1648 -0.0461,-0.3345 -0.0461,-0.509 0,-0.1745 0.0121,-0.3296 0.0364,-0.4653 0.0242,-0.1358 0.08,-0.2796 0.1672,-0.4315 0.0873,-0.1519 0.2311,-0.2537 0.4314,-0.3054 0.1067,-0.0258 0.219,-0.0452 0.337,-0.0582 0.1179,-0.0129 0.2593,-0.0193 0.4241,-0.0193l0.5817 0 0.097 0c0.223,0 0.4419,0.029 0.6568,0.0872 0.2149,0.0582 0.3693,0.16 0.463,0.3054 0.0937,0.1454 0.1503,0.3022 0.1696,0.4702 0.0194,0.1681 0.0291,0.3701 0.0291,0.606zm-0.698 -0.9647c-0.0582,-0.0355 -0.1907,-0.0679 -0.3975,-0.0969 -0.1002,-0.0097 -0.2036,-0.0178 -0.3103,-0.0243 -0.1066,-0.0064 -0.2197,-0.0097 -0.3393,-0.0097 -0.2198,0 -0.4104,0.0097 -0.572,0.0291 -0.1551,0.0129 -0.2699,0.0388 -0.3442,0.0776 -0.1131,0.0678 -0.1891,0.1535 -0.2278,0.2569 -0.0324,0.1066 -0.0485,0.2278 -0.0485,0.3636l2.4771 0 0 -0.0824 0.0049 -0.0873c0,-0.097 -0.0154,-0.1769 -0.0461,-0.24 -0.0307,-0.063 -0.0961,-0.1252 -0.1963,-0.1866z"/>
  <path id="123456789" class="fil0" d="M40.286 3.2703c0.1098,-0.0897 0.2278,-0.135 0.3538,-0.135l0.0582 0 0.0824 0.0146c0.0453,0.0064 0.1794,0.0582 0.4024,0.1551 0.223,0.097 0.3668,0.1454 0.4314,0.1454l0.0921 -0.0194c0.0485,-0.0096 0.0856,-0.0371 0.1115,-0.0824 0.0259,-0.0452 0.0598,-0.1276 0.1018,-0.2472l0.2521 0c0.0064,0.0226 0.0048,0.0566 -0.0049,0.1018l-0.063 0.1988c-0.0291,0.0904 -0.0792,0.1696 -0.1503,0.2375 -0.0711,0.0679 -0.1454,0.1066 -0.223,0.1163l-0.1502 0.0146c-0.1099,0 -0.2852,-0.0501 -0.526,-0.1503 -0.2408,-0.1002 -0.3902,-0.1535 -0.4484,-0.16 -0.084,0 -0.1487,0.0275 -0.1939,0.0824 -0.0452,0.055 -0.0921,0.1406 -0.1406,0.257l-0.2424 0c0.0291,-0.1414 0.0598,-0.2481 0.0921,-0.32 0.0324,-0.0719 0.0873,-0.1422 0.1649,-0.2092zm2.4432 3.588l-0.4315 0 0 -1.2943 0 -0.16c0,-0.1519 -0.0145,-0.2892 -0.0436,-0.412 -0.0226,-0.1196 -0.076,-0.2028 -0.16,-0.2497 -0.084,-0.0468 -0.2133,-0.0832 -0.3878,-0.109 -0.0808,-0.013 -0.1664,-0.0227 -0.2569,-0.0291 -0.0905,-0.0065 -0.1971,-0.0097 -0.32,-0.0097 -0.2165,0 -0.3958,0.0129 -0.538,0.0388 -0.1552,0.0193 -0.2877,0.0614 -0.3975,0.126 -0.1099,0.0646 -0.1891,0.1632 -0.2376,0.2957 -0.0388,0.126 -0.0581,0.2941 -0.0581,0.5041l0 0.1843 0 1.1149 -0.4315 0 0 -2.6322 0.4072 0 0 0.4556c0.0873,-0.1454 0.1899,-0.2472 0.3078,-0.3054 0.118,-0.0581 0.24,-0.0969 0.366,-0.1163l0.3248 -0.0339 0.286 0c0.1519,0 0.2909,0.0048 0.4169,0.0145 0.1261,0.0097 0.2505,0.0275 0.3733,0.0533 0.2391,0.0445 0.4104,0.1156 0.5138,0.2125 0.1034,0.0865 0.1745,0.1931 0.2133,0.3183 0.0162,0.055 0.0291,0.1414 0.0388,0.2586 0.0097,0.1179 0.0146,0.2666 0.0146,0.4468l0 1.3282z"/>
  <path id="12345678910" class="fil0" d="M46.8496 5.6512c0,0.2489 -0.021,0.4266 -0.0631,0.5333 -0.0581,0.1809 -0.1664,0.3304 -0.3247,0.4484 -0.1584,0.1179 -0.3604,0.1769 -0.606,0.1769l-1.5124 0c-0.2392,0 -0.4371,-0.0574 -0.5939,-0.1721 -0.1567,-0.1147 -0.269,-0.2658 -0.3369,-0.4532 -0.042,-0.1164 -0.063,-0.2941 -0.063,-0.5333l0 -0.3248c0,-0.2488 0.021,-0.4249 0.063,-0.5284 0.0582,-0.1809 0.1673,-0.3312 0.3272,-0.4508 0.16,-0.1196 0.3612,-0.1793 0.6036,-0.1793l1.5124 0c0.2456,0 0.446,0.0581 0.6011,0.1745 0.1551,0.1163 0.265,0.2682 0.3296,0.4556 0.0162,0.0453 0.0324,0.1164 0.0485,0.2133l0.0146 0.3151 0 0.3248zm-0.4412 -0.3248l-0.0145 -0.252c-0.0097,-0.0744 -0.0299,-0.1552 -0.0606,-0.2424 -0.0307,-0.0873 -0.097,-0.1568 -0.1988,-0.2085 -0.1018,-0.0517 -0.2318,-0.0775 -0.3902,-0.0775l-1.2846 0c-0.1648,0 -0.2965,0.025 -0.3951,0.0751 -0.0986,0.0501 -0.168,0.1293 -0.2084,0.2375 -0.0404,0.1083 -0.0606,0.2642 -0.0606,0.4678l0 0.3248c0,0.1972 0.0194,0.3499 0.0581,0.4581 0.0388,0.1083 0.1099,0.1915 0.2133,0.2497 0.1099,0.0517 0.2408,0.0775 0.3927,0.0775l1.2846 0c0.1648,0 0.2949,-0.0242 0.3902,-0.0727 0.0954,-0.0485 0.1657,-0.1309 0.2109,-0.2472 0.042,-0.126 0.063,-0.2812 0.063,-0.4654l0 -0.3248z"/>
 </g>
</svg>
