<?xml version="1.0" encoding="UTF-8"?>
<!DOCTYPE svg PUBLIC "-//W3C//DTD SVG 1.1//EN" "http://www.w3.org/Graphics/SVG/1.1/DTD/svg11.dtd">
<!-- Creator: CorelDRAW -->
<svg xmlns="http://www.w3.org/2000/svg" xml:space="preserve" width="110mm" height="100mm" style="shape-rendering:geometricPrecision; text-rendering:geometricPrecision; image-rendering:optimizeQuality; fill-rule:evenodd; clip-rule:evenodd"
viewBox="0 0 110 100"
 xmlns:xlink="http://www.w3.org/1999/xlink">
 <defs>
  <style type="text/css">
   <![CDATA[
    .fil0 {fill:#72706F}
   ]]>
  </style>
 </defs>
 <g id="Capa_x0020_1">
  <metadata id="CorelCorpID_0Corel-Layer"/>
  <g id="_75048144">
   <path id="_74746640" class="fil0" d="M5.3946 16.7726c4.5057,0.3817 9.7091,1.6734 16.9887,5.0737 5.1091,3.534 1.386,9.4459 15.3275,10.602 -0.7528,6.5189 -9.2579,0.5339 -6.8244,12.7867 1.7506,8.8141 3.1258,12.6224 9.7382,19.5848 3.3713,3.5497 3.3826,3.6163 -0.1866,0.182 -7.2437,-6.9704 -9.6619,-13.2708 -11.6349,-23.1956 -0.792,-3.9843 -1.6582,-9.1173 -3.6908,-13.3008 -1.0502,-2.162 -2.1557,-3.764 -4.1887,-5.0006 -5.5673,-3.3873 -10.7105,-5.2113 -15.5596,-6.3655 -2.017,-0.4801 -2.066,-0.5443 0.0306,-0.3667z"/>
   <path id="_75057336" class="fil0" d="M29.9115 21.1604c2.6824,-0.0536 6.1731,0.862 9.0522,2.8174 1.2978,0.8814 2.579,1.9199 3.1893,3.403 0.8284,2.0127 0.7944,4.7423 0.8976,7.2994 0.1295,3.2096 0.2345,3.42 -0.4004,0.049 -0.3111,-1.6521 -0.5915,-3.4388 -0.967,-4.9465 -0.5534,-2.2218 -1.6043,-3.7352 -3.3694,-5.1699 -2.1093,-1.7146 -4.8452,-2.7292 -8.4822,-3.0195 -2.5567,-0.2039 -2.5076,-0.3814 0.0799,-0.4329z"/>
   <path id="_74753328" class="fil0" d="M49.5867 26.4129c4.8306,-6.2234 8.7381,-10.3081 12.7679,-13.2127 0.6453,-0.4652 1.3275,-1.2301 1.1959,0.114 -0.3159,3.225 -8.3052,18.783 -7.7251,21.515 -1.9675,-1.6939 -2.0384,-2.7017 -0.6337,-6.0143 3.4981,-6.4821 5.923,-11.0427 5.2747,-12.2072 -0.4158,-0.1457 -5.5806,4.5335 -10.5264,10.0133 -0.3438,0.3809 -0.6672,0.7406 -0.9702,1.0785 -4.5441,5.0689 -4.4962,5.2654 -0.2224,-0.2084 0.2636,-0.3375 0.5434,-0.697 0.8393,-1.0782z"/>
   <path id="_74746504" class="fil0" d="M48.8807 40.7607c9.7563,-6.2845 19.1001,-10.9153 34.1397,-17.3447 9.0292,-3.1443 14.235,-3.7593 17.7763,-3.2843 0.3129,0.0419 0.6128,0.0925 0.9012,0.1505 4.222,0.849 3.3043,0.7451 -0.1026,0.8319 -11.579,0.2956 -34.0968,10.652 -52.3794,20.0237 -4.6111,2.3636 -4.9016,2.5644 -0.3352,-0.3771z"/>
   <path id="_74943232" class="fil0" d="M54.5547 75.0627c2.026,1.3903 3.4902,2.9743 5.0635,4.6117 0.8984,0.9348 1.4298,1.8049 2.0544,2.9557 1.7173,3.1631 3.7811,7.2496 7.5202,9.9343 0.7818,-0.2865 -1.2529,-2.8157 -1.0969,-3.7802 0.8859,-1.0718 4.7263,3.9816 5.9159,3.3905 -2.2383,-3.8988 -4.4766,-7.3843 -6.7149,-11.283 -1.1905,-2.7147 -1.6405,-6.5517 -2.4834,-10.1817 -1.1321,-4.8751 -0.9701,-4.3825 -0.4506,0.1177 0.2309,2.0004 0.3827,3.9914 1.1404,6.5885 0.5633,1.9313 1.032,4.0779 2.0415,5.8097 1.0667,1.8302 2.5727,3.7245 3.42,5.5413 -0.4874,0.427 -3.4263,-3.1623 -3.9659,-2.7876 -1.0606,0.0394 -0.2434,1.6436 -0.3651,2.4654 -1.2723,-0.0719 -2.4828,-3.443 -3.8083,-5.9098 -0.7866,-1.4637 -1.8587,-2.3442 -3.0387,-3.4972 -1.6858,-1.6472 -3.3524,-3.2709 -5.1077,-4.2781 -2.3057,-1.3232 -2.1022,-1.0544 -0.1244,0.3028z"/>
  </g>
 </g>
</svg>
