<?xml version="1.0" encoding="UTF-8"?>
<!DOCTYPE svg PUBLIC "-//W3C//DTD SVG 1.1//EN" "http://www.w3.org/Graphics/SVG/1.1/DTD/svg11.dtd">
<!-- Creator: CorelDRAW -->
<svg xmlns="http://www.w3.org/2000/svg" xml:space="preserve" width="50mm" height="15mm" style="shape-rendering:geometricPrecision; text-rendering:geometricPrecision; image-rendering:optimizeQuality; fill-rule:evenodd; clip-rule:evenodd"
viewBox="0 0 50 15"
 xmlns:xlink="http://www.w3.org/1999/xlink">
 <defs>
  <style type="text/css">
   <![CDATA[
    .fil1 {fill:#F8C300}
    .fil0 {fill:white}
   ]]>
  </style>
 </defs>
 <g id="Capa_x0020_1">
  <metadata id="CorelCorpID_0Corel-Layer"/>
  <g id="_144702352">
   <g>
    <path id="_44597296" class="fil0" d="M13.2404 9.6739l-0.0028 -4.7157 0 -0.0187 0.0015 -0.0101c0.0287,-0.1896 0.1407,-0.3191 0.2841,-0.3896 0.0801,-0.0394 0.1697,-0.0588 0.2584,-0.0586 0.09,0.0003 0.1797,0.0199 0.2587,0.0585 0.145,0.0707 0.2585,0.201 0.2869,0.3892l0.0015 0.0099 0 0.019 0.005 4.0231c-0.0015,0.0575 0.033,0.1707 0.1589,0.2038 0.6983,0.184 1.4324,0.2729 2.1272,0.327 0.1751,0.0136 0.3395,0.0239 0.4933,0.0311 0.1657,0.0077 0.3244,0.0127 0.4758,0.0152 0.0845,0.0014 0.1668,0.0021 0.2469,0.0021 0.8785,-0.0078 1.9143,-0.1061 2.7604,-0.2558 0.1727,-0.0305 0.3291,-0.0612 0.4661,-0.0916 0.0337,-0.0075 0.067,-0.0157 0.1003,-0.023 0.1226,-0.0265 0.1689,-0.1357 0.169,-0.2039 0.0006,-0.6233 0,-1.2435 0.0004,-1.8637 0.0006,-0.7196 0.0011,-1.4393 0.0002,-2.1638l0 -0.0241 0.0061 -0.0237c0.0454,-0.1765 0.1508,-0.296 0.2798,-0.3635 0.0888,-0.0464 0.1874,-0.0668 0.2839,-0.0632 0.0969,0.0037 0.1924,0.031 0.2747,0.0798 0.1248,0.0741 0.2211,0.196 0.2512,0.3595l0.0031 0.0165 0 0.0185 0.0004 4.7034c0.0002,0.0683 -0.0306,0.2471 -0.2352,0.3074 -0.602,0.1772 -1.243,0.3361 -1.9428,0.4549 -0.7339,0.1245 -1.5314,0.2054 -2.4139,0.222l-0.0038 0c-0.7301,-0.0032 -1.4629,-0.0556 -2.2017,-0.1691 -0.7072,-0.1086 -1.4283,-0.2583 -2.1523,-0.5042 -0.1679,-0.057 -0.2434,-0.2344 -0.2413,-0.2986z"/>
    <path id="_44597656" class="fil0" d="M9.8334 4.2424c0.7298,0.1158 1.4052,0.2856 2.033,0.5012l0.0543 0.0187 0.036 0.0466c0.0831,0.1078 0.1239,0.2268 0.1303,0.3424 0.0052,0.0939 -0.0126,0.1856 -0.049,0.2675 -0.037,0.083 -0.0934,0.156 -0.1648,0.2111 -0.0802,0.0619 -0.1784,0.1011 -0.2882,0.1072l-0.0366 0.002 -0.034 -0.0111 -0.3564 -0.1168 -0.0001 0.0003c-0.7313,-0.221 -1.6135,-0.3771 -2.5475,-0.4365 -0.1877,-0.0119 -0.372,-0.02 -0.5516,-0.0238 -0.1856,-0.004 -0.3725,-0.0041 -0.5598,-0.0001l-0.0037 0.0001 -0.0016 0c-0.4926,0.0068 -1.0979,0.0307 -1.7366,0.098 -0.5335,0.0562 -1.0877,0.144 -1.6146,0.2752 -0.0646,0.0161 -0.1536,0.08 -0.1525,0.194 0.0047,0.5037 0,1.0775 -0.0002,1.6507 -0.0002,0.5609 0.018,1.1217 -0.0001,1.6152 -0.0028,0.0756 0.0352,0.1719 0.1618,0.2087 0.5194,0.1513 1.0679,0.2231 1.5943,0.2777 0.6323,0.0657 1.2357,0.0852 1.7471,0.0894 0.2525,-0.0016 0.4752,-0.0037 0.7039,-0.0119 0.2243,-0.008 0.4503,-0.022 0.7101,-0.0474l0.0074 -0.0007 0.0108 -0.0001c0.1549,-0.0004 0.289,0.0583 0.3877,0.1516 0.0552,0.0521 0.0992,0.115 0.1293,0.1843 0.03,0.0689 0.0464,0.1449 0.0466,0.2236 0.0003,0.1411 -0.0514,0.2879 -0.1703,0.4137l-0.047 0.0496 -0.0669 0.0096c-0.6013,0.0859 -0.8792,0.0928 -1.5681,0.1099l-0.1396 0.0035 -0.0038 0c-0.9749,0.0068 -2.1027,-0.0961 -3.1964,-0.3444 -0.2189,-0.0497 -0.4319,-0.1038 -0.6368,-0.1623 -0.1859,-0.0531 -0.3697,-0.115 -0.5544,-0.1746 -0.1214,-0.0391 -0.2131,-0.179 -0.2091,-0.3l0.0005 -4.6278c0,-0.132 0.087,-0.248 0.207,-0.2895 1.009,-0.349 2.2111,-0.5668 3.2478,-0.6457 0.2003,-0.0152 0.4011,-0.0257 0.599,-0.0316 0.1911,-0.0056 0.3731,-0.0062 0.5429,-0.002l0.0031 0c0.8354,-0.0013 1.6123,0.0595 2.3368,0.1745z"/>
    <path id="_44598016" class="fil0" d="M36.555 4.9558l0 4.0283c0.0004,0.0659 0.034,0.1682 0.1673,0.2052 0.8173,0.2271 1.7145,0.3101 2.4529,0.3511 0.1673,0.0093 0.3216,0.0153 0.4615,0.0183 0.145,0.0031 0.28,0.0034 0.4025,0.0014l0.0048 -0.0001 0.0038 0c0.8677,0.0048 1.8474,-0.068 2.7727,-0.2435 0.1815,-0.0344 0.3591,-0.0723 0.5312,-0.1139 0.1673,-0.0403 0.3376,-0.0865 0.5102,-0.1388l0.0002 0.0007 0.0146 -0.0044c0.0442,-0.0135 0.0909,-0.0267 0.1403,-0.0366 0.0554,-0.0112 0.1119,-0.0176 0.1683,-0.0154 0.0762,0.0031 0.171,0.0196 0.2564,0.0661 0.0183,0.0099 0.0364,0.0214 0.054,0.0346l0.0004 -0.0005c0.0173,0.013 0.0347,0.0284 0.052,0.0466l0.0008 0.0008 0.0017 0.0018 0.0008 0.0008c0.0336,0.0362 0.0623,0.0819 0.0844,0.1329 0.0371,0.0856 0.0562,0.1902 0.0484,0.2888 -0.009,0.1127 -0.0514,0.223 -0.1385,0.3039 -0.0319,0.0297 -0.07,0.0549 -0.1148,0.0743l-0.0152 0.0066 -0.0007 0.0003c-0.8647,0.2844 -1.8583,0.5058 -2.9823,0.6122 -0.2202,0.0208 -0.444,0.0372 -0.6711,0.0487 -0.2246,0.0113 -0.4576,0.0181 -0.6993,0.0197l-0.0134 0.0001 -0.0008 0c-0.9401,-0.003 -2.0088,-0.0907 -3.1136,-0.3349 -0.2186,-0.0483 -0.4367,-0.1021 -0.6532,-0.1619 -0.1979,-0.0547 -0.3961,-0.1162 -0.5954,-0.1807 -0.146,-0.0473 -0.2267,-0.1719 -0.2245,-0.3112l0.0004 -4.699 0 -0.0172 0.0023 -0.014c0.0344,-0.2116 0.1581,-0.3472 0.3113,-0.4146 0.0801,-0.0352 0.168,-0.0503 0.2548,-0.0469 0.0859,0.0035 0.1712,0.0254 0.2467,0.0643 0.149,0.0768 0.262,0.2165 0.2781,0.4101l0 0.016z"/>
    <path id="_75754888" class="fil0" d="M45.2333 5.2383c0.2356,0 0.4712,0 0.7068,0 0.0503,-0.0023 0.1841,0.0402 0.1943,0.1943l0 4.7199 0 0.0112 -0.0031 0.0191 -0.0001 0.0012 -0.0002 0c-0.0072,0.0455 -0.0202,0.0883 -0.0378,0.128 -0.0186,0.0417 -0.0403,0.0779 -0.0642,0.1086 -0.1244,0.1599 -0.3397,0.2338 -0.4856,0.2165l-0.0015 -0.0008c-0.1223,-0.0157 -0.2292,-0.0541 -0.316,-0.1251 -0.0909,-0.0744 -0.1542,-0.1783 -0.1834,-0.3207l-0.0038 -0.0186 0 -0.0202c0.0004,-1.573 0.0007,-3.1461 0.0011,-4.7191 0.0052,-0.1126 0.084,-0.1873 0.1935,-0.1943z"/>
    <path id="_44598464" class="fil0" d="M29.123 4.1832c1.9025,0.977 3.4051,2.2222 4.5278,3.5939 0.2174,0.2656 0.4243,0.54 0.6209,0.8212 0.192,0.2747 0.3714,0.5532 0.5385,0.8339l0.0003 -0.0002 0.0001 0.0001 0 0.0008c0.0394,0.0662 0.0987,0.1804 0.1067,0.3047 0.0105,0.1622 -0.0497,0.3221 -0.2786,0.4097l-0.0028 0.0011 -0.0154 0.0043c-0.1352,0.0372 -0.3071,0.042 -0.4832,-0.0366 -0.0347,-0.0155 -0.0687,-0.0336 -0.1014,-0.0546 -0.0321,-0.0205 -0.0645,-0.0448 -0.0972,-0.0732l-0.0008 0 -0.0018 -0.0015 -0.0199 -0.0174 -0.015 -0.0229c-0.8511,-1.2992 -2.0697,-2.6454 -3.4179,-3.6784 -0.2615,-0.2003 -0.5278,-0.3889 -0.7973,-0.5629 -0.2063,-0.1334 -0.4169,-0.2559 -0.6262,-0.3745 -0.0661,-0.0374 -0.1388,-0.0379 -0.1993,-0.0036 -0.8682,0.4915 -2.1576,1.3962 -3.3586,2.7114 -0.2531,0.2772 -0.5009,0.5689 -0.7385,0.8739 -0.2379,0.3053 -0.4686,0.6273 -0.6879,0.9653l0 0 -0.003 0.0048 -0.0006 0.0017 -0.0002 0.0004 -0.0003 -0.0003c-0.1155,0.1819 -0.3624,0.293 -0.5774,0.293l0 0.0008c-0.0439,0 -0.0877,-0.0045 -0.13,-0.0137 -0.0457,-0.01 -0.0892,-0.0254 -0.129,-0.0465l-0.0061 -0.0038 -0.0001 -0.0001 0.0001 -0.0002c-0.01,-0.0054 -0.0173,-0.0095 -0.0217,-0.0122 -0.1301,-0.081 -0.1868,-0.1987 -0.193,-0.3296 -0.0051,-0.106 0.0275,-0.2167 0.0805,-0.3163 0.0109,-0.0204 0.0203,-0.0371 0.0282,-0.0497 1.2253,-1.9684 2.7497,-3.3594 4.17,-4.3213 0.277,-0.1875 0.5491,-0.3582 0.8133,-0.5132 0.2118,-0.1242 0.4154,-0.2371 0.6102,-0.3394 0.0353,-0.0185 0.07,-0.0374 0.1051,-0.0546 0.0795,-0.039 0.1862,-0.0535 0.3015,0.0057z"/>
   </g>
   <g>
    <path id="_144399320" class="fil1" d="M10.2488 10.6533c-0.3484,-0.4188 -0.6968,-0.8376 -1.0475,-1.2587l-0.0196 -0.0236 -0.0108 -0.0258c-0.0666,-0.1596 -0.0445,-0.3228 0.0315,-0.4578 0.0463,-0.0821 0.1128,-0.1536 0.191,-0.2063 0.0792,-0.0534 0.1723,-0.0887 0.2708,-0.0977 0.1506,-0.0139 0.308,0.0332 0.4407,0.1689l0.0098 0.0106 2.0624 2.4631 0.0176 0.0211 0.0119 0.0282c0.0554,0.1312 0.052,0.2642 0.008,0.3828 -0.0367,0.0991 -0.103,0.188 -0.1869,0.2557 -0.0828,0.067 -0.1843,0.1136 -0.2929,0.1293 -0.1307,0.0189 -0.2702,-0.0069 -0.399,-0.0954l-0.0228 -0.0157 -0.0166 -0.0199c-0.3508,-0.4212 -0.6992,-0.84 -1.0476,-1.2588z"/>
    <path id="_44598440" class="fil1" d="M45.5774 3.7127l0.0025 0.0001 0.0007 0c0.0324,0.0012 0.0637,0.0042 0.0931,0.0092 0.0333,0.0056 0.0654,0.0133 0.0954,0.0232 0.1734,0.0571 0.3213,0.1855 0.3622,0.4211l0.003 0.0174 0 0.0152 0 0.3881 -0.0007 0.0053 -0.0006 0.0209 -0.0001 0c-0.0123,0.165 -0.1048,0.2842 -0.2218,0.3605 -0.1045,0.0681 -0.2333,0.1001 -0.3349,0.0971l-0.0008 0 -0.0196 -0.0005 -0.0008 0 -0.0031 -0.0003 -0.0007 0c-0.0432,-0.0037 -0.0851,-0.0126 -0.1253,-0.0256 -0.0399,-0.0129 -0.0763,-0.0294 -0.1094,-0.0485 -0.1716,-0.0992 -0.2701,-0.2873 -0.2768,-0.4037 -0.0051,-0.0886 -0.0034,-0.1792 -0.0016,-0.2697 0.0004,-0.0229 0.0009,-0.0449 0.0009,-0.125l0 -0.0224 0.0053 -0.0224 0.0002 -0.0011 0.0008 0c0.0079,-0.0329 0.0174,-0.0635 0.0286,-0.0914 0.0117,-0.0289 0.0262,-0.0578 0.0436,-0.0865 0.0895,-0.1473 0.237,-0.248 0.4417,-0.261l0.0063 -0.0004 0.0119 0.0004z"/>
    <path id="_144397840" class="fil1" d="M28.9307 9.536c-0.5469,-0.0043 -1.0949,-0.0086 -1.6263,-0.0125l-0.0321 -0.0002 -0.0256 -0.0081c-0.1647,-0.0522 -0.2752,-0.1747 -0.3294,-0.3205 -0.0329,-0.0884 -0.0445,-0.185 -0.0344,-0.2781 0.0104,-0.0954 0.0435,-0.1894 0.0999,-0.2701 0.0869,-0.1243 0.2244,-0.2143 0.4134,-0.228l0.0145 0 3.2124 0.015 0.0306 0.0002 0.0263 0.0082c0.1349,0.0421 0.2342,0.131 0.2969,0.2422 0.0523,0.0925 0.0775,0.1998 0.0751,0.3061 -0.0024,0.1074 -0.0321,0.2152 -0.0897,0.3075 -0.0703,0.1126 -0.1803,0.2029 -0.3312,0.2442l-0.0256 0.007 -0.026 -0.0002c-0.5641,-0.0041 -1.106,-0.0084 -1.6488,-0.0127z"/>
   </g>
  </g>
 </g>
</svg>
